<svg width="110" height="122" viewBox="0 0 110 122" fill="none" xmlns="http://www.w3.org/2000/svg">
<path d="M27.5165 55.5107C27.5165 43.7879 22.0151 38.1898 11.7274 34.6046C7.66013 33.2433 3.75238 32.1713 0.00825 31.2812L0 122H20.4119C24.3416 122 27.5083 118.598 27.5083 114.412L27.5165 55.5107Z" fill="#101626"/>
<path d="M68.6744 39.9093C68.6744 28.1866 63.195 22.5622 52.9485 19.0033C48.8964 17.6433 45.0051 16.57 41.2747 15.6799L41.3256 121.97H61.6564C65.5476 121.97 68.7253 118.568 68.7253 114.382L68.6744 39.9093Z" fill="#101626"/>
<path d="M98.2905 3.29719C87.989 6.85616 82.4918 12.4557 82.4918 24.1247L82.4835 121.999H102.878C106.805 121.999 109.992 118.597 109.992 114.437L110 0C106.259 0.863909 102.355 1.93587 98.2905 3.29719Z" fill="#101626"/>
</svg>
